HIERARCHY
ROOT Hips
{
  OFFSET 0.0 0.0 0.0
  CHANNELS 6 Xposition Yposition Zposition Zrotation Yrotation Xrotation
  JOINT LHipJoint
  {
    OFFSET 0.0 0.0 0.0
    CHANNELS 3 Zrotation Yrotation Xrotation
    JOINT LeftUpLeg
    {
      OFFSET 1.363059998 -1.794630051 0.839290023
      CHANNELS 3 Zrotation Yrotation Xrotation
      JOINT LeftLeg
      {
        OFFSET 2.448110104 -6.726130009 0.0
        CHANNELS 3 Zrotation Yrotation Xrotation
        JOINT LeftFoot
        {
          OFFSET 2.562200069 -7.039589882 0.0
          CHANNELS 3 Zrotation Yrotation Xrotation
          JOINT LeftToeBase
          {
            OFFSET 0.157639995 -0.433109999 2.322550058
            CHANNELS 3 Zrotation Yrotation Xrotation
            End Site
            {
              OFFSET 0.0 -0.0 1.189659953
            }
          }
        }
      }
    }
  }
  JOINT RHipJoint
  {
    OFFSET 0.0 0.0 0.0
    CHANNELS 3 Zrotation Yrotation Xrotation
    JOINT RightUpLeg
    {
      OFFSET -1.305520058 -1.794630051 0.839290023
      CHANNELS 3 Zrotation Yrotation Xrotation
      JOINT RightLeg
      {
        OFFSET -2.54253006 -6.985549927 0.0
        CHANNELS 3 Zrotation Yrotation Xrotation
        JOINT RightFoot
        {
          OFFSET -2.568259954 -7.056230068 0.0
          CHANNELS 3 Zrotation Yrotation Xrotation
          JOINT RightToeBase
          {
            OFFSET -0.164729998 -0.452589989 2.363149881
            CHANNELS 3 Zrotation Yrotation Xrotation
            End Site
            {
              OFFSET -0.0 -0.0 1.21081996
            }
          }
        }
      }
    }
  }
  JOINT LowerBack
  {
    OFFSET 0.0 0.0 0.0
    CHANNELS 3 Zrotation Yrotation Xrotation
    JOINT Spine
    {
      OFFSET 0.028270001 2.035589933 -0.193379998
      CHANNELS 3 Zrotation Yrotation Xrotation
      JOINT Spine1
      {
        OFFSET 0.05672 2.04885006 -0.042750001
        CHANNELS 3 Zrotation Yrotation Xrotation
        JOINT Neck
        {
          OFFSET 0.0 0.0 0.0
          CHANNELS 3 Zrotation Yrotation Xrotation
          JOINT Neck1
          {
            OFFSET -0.054170001 1.74624002 0.172020003
            CHANNELS 3 Zrotation Yrotation Xrotation
            JOINT Head
            {
              OFFSET 0.10407 1.761360049 -0.123970002
              CHANNELS 3 Zrotation Yrotation Xrotation
              End Site
              {
                OFFSET 0.0372 1.770439982 -0.062410001
              }
            }
          }
        }
        JOINT LeftShoulder
        {
          OFFSET 0.0 0.0 0.0
          CHANNELS 3 Zrotation Yrotation Xrotation
          JOINT LeftArm
          {
            OFFSET 3.362410069 1.200889945 -0.311210006
            CHANNELS 3 Zrotation Yrotation Xrotation
            JOINT LeftForeArm
            {
              OFFSET 4.982999802 -0.0 -0.0
              CHANNELS 3 Zrotation Yrotation Xrotation
              JOINT LeftHand
              {
                OFFSET 3.483560085 -0.0 -0.0
                CHANNELS 3 Zrotation Yrotation Xrotation
                JOINT LeftFingerBase
                {
                  OFFSET 0.0 0.0 0.0
                  CHANNELS 3 Zrotation Yrotation Xrotation
                  JOINT LeftHandIndex1
                  {
                    OFFSET 0.715260029 -0.0 -0.0
                    CHANNELS 3 Zrotation Yrotation Xrotation
                    End Site
                    {
                      OFFSET 0.576659977 -0.0 -0.0
                    }
                  }
                }
                JOINT LThumb
                {
                  OFFSET 0.0 0.0 0.0
                  CHANNELS 3 Zrotation Yrotation Xrotation
                  End Site
                  {
                    OFFSET 0.585470021 -0.0 0.585470021
                  }
                }
              }
            }
          }
        }
        JOINT RightShoulder
        {
          OFFSET 0.0 0.0 0.0
          CHANNELS 3 Zrotation Yrotation Xrotation
          JOINT RightArm
          {
            OFFSET -3.136600018 1.374050021 -0.404650003
            CHANNELS 3 Zrotation Yrotation Xrotation
            JOINT RightForeArm
            {
              OFFSET -5.241899967 -0.0 -0.0
              CHANNELS 3 Zrotation Yrotation Xrotation
              JOINT RightHand
              {
                OFFSET -3.444169998 -0.0 -0.0
                CHANNELS 3 Zrotation Yrotation Xrotation
                JOINT RightFingerBase
                {
                  OFFSET 0.0 0.0 0.0
                  CHANNELS 3 Zrotation Yrotation Xrotation
                  JOINT RightHandIndex1
                  {
                    OFFSET -0.622529984 -0.0 -0.0
                    CHANNELS 3 Zrotation Yrotation Xrotation
                    End Site
                    {
                      OFFSET -0.501900017 -0.0 -0.0
                    }
                  }
                }
                JOINT RThumb
                {
                  OFFSET 0.0 0.0 0.0
                  CHANNELS 3 Zrotation Yrotation Xrotation
                  End Site
                  {
                    OFFSET -0.509559989 -0.0 0.509559989
                  }
                }
              }
            }
          }
        }
      }
    }
  }
}
MOTION
Frames: 4
Frame Time: 0.0083333
0.0 28.310499191 0.0 -7.28839922 -11.267500877 -37.305007935 0.0 -0.0 0.0 6.659400463 7.382100105 -38.083309174 25.448387146 19.27289772 106.117774963 0.085100017 -12.997298241 19.491397858 0.061500005 1.600800157 4.403500557 0.0 -0.0 0.0 20.925397873 6.645100117 -29.148700714 -14.081000328 -19.138399124 72.451690674 0.481200069 -16.212493896 5.500098705 -0.682900012 -5.283499241 14.718896866 -0.284199893 1.912499547 36.173793793 -1.031999946 2.065000296 13.538901329 -1.617099881 0.961500168 -3.164199352 -13.146701813 -13.461903572 1.432801485 12.760001183 -18.945701599 6.537097931 4.956600666 -9.455402374 4.192299843 0.0 -0.0 0.0 21.592096329 -38.538299561 -50.71030426 101.594100952 -59.48589325 -70.023406982 0.0 -0.0 3.795499086 13.233301163 1.002400041 0.235699967 -7.125 0.0 0.0 -10.577897072 30.907194138 3.698500633 0.0 -0.0 0.0 17.998792648 52.824001312 -31.201704025 -122.53678894 55.595211029 -87.761009216 0.0 -0.0 7.908199787 -30.817806244 -24.299203873 13.792103767 7.125 -0.0 0.0 -1.623100996 -57.704811096 0.504900575 
-0.002500534 28.299699783 0.000400066 -7.308700562 -11.285302162 -37.342205048 0.0 -0.0 0.0 6.795899868 7.173101425 -37.903106689 25.336904526 19.302988052 105.780204773 0.205100298 -12.619100571 20.337701797 0.151899993 2.511499405 6.921599388 0.0 -0.0 0.0 21.050897598 6.688498497 -29.140001297 -14.175198555 -19.16629982 72.739021301 0.548399925 -16.75850296 5.183001041 -1.047600269 -6.508699417 18.267700195 -0.32679981 1.91049993 36.306499481 -0.835299969 2.059999704 13.274898529 -1.395400047 0.948400259 -3.503100395 -13.559103012 -13.355501175 2.342799664 12.742501259 -18.837697983 5.910200119 5.104700089 -9.451099396 3.878100395 0.0 -0.0 0.0 20.726100922 -38.772800446 -50.040096283 101.375823975 -59.505306244 -69.835327148 0.0 -0.0 3.857499123 14.163802147 1.096800089 0.276800066 -7.125 0.0 0.0 -9.856402397 31.021203995 3.411899567 0.0 -0.0 0.0 18.860998154 53.059394836 -30.124000549 -122.963020325 55.4672966 -88.112319946 0.0 -0.0 8.111598969 -30.929504395 -23.956201553 13.674003601 7.125 -0.0 0.0 -1.836000085 -57.353099823 0.555600524 
-0.003700256 28.293199539 -0.000800133 -7.408701897 -11.400301933 -37.414398193 0.0 -0.0 0.0 7.036000729 7.044902325 -37.619205475 25.182893753 19.343395233 105.314903259 0.308500111 -12.358398438 21.106395721 0.225800082 3.059000254 8.443099976 0.0 -0.0 0.0 21.330400467 6.718202114 -29.033403397 -14.242999077 -19.186098099 72.945198059 0.562900066 -16.868297577 5.109199047 -1.011199713 -6.398100376 17.944099426 -0.00669996 1.999700069 36.419704437 -0.765600085 2.284499884 13.51000309 -1.563699961 1.070000291 -3.273400307 -12.899299622 -13.632699013 2.056900263 12.65130043 -19.087303162 5.004001617 4.971800327 -9.560601234 3.613200426 0.0 -0.0 0.0 21.244203568 -39.402702332 -50.91569519 100.983596802 -59.539203644 -69.497306824 0.0 -0.0 4.089300156 14.740799904 1.115999818 0.293599963 -7.125 0.0 0.0 -9.403799057 31.051996231 3.24429965 0.0 -0.0 0.0 18.958410263 53.033512115 -30.701501846 -123.673194885 55.248908997 -88.696716309 0.0 -0.0 8.212999344 -30.110599518 -24.122001648 13.333400726 7.125 -0.0 0.0 -0.866099715 -57.345188141 0.261899918 
-0.001699448 28.287200928 -0.003799915 -7.64910078 -11.570703506 -37.386707306 0.0 -0.0 0.0 7.434499741 6.901299477 -37.4088974 25.015218735 19.386011124 104.809196472 0.297599852 -12.960198402 21.704595566 0.209600002 2.947499752 8.132699966 0.0 -0.0 0.0 21.789703369 6.746302605 -28.990810394 -14.282699585 -19.197589874 73.066085815 0.511600196 -16.895999908 5.905300617 -0.826800227 -5.801400661 16.209300995 -0.634699941 1.58370018 36.695407867 0.147100002 1.60839963 12.232098579 -0.071400009 0.677400172 -4.677900791 -16.657300949 -12.116397858 6.108798981 13.354002953 -17.607902527 3.98939991 6.159300804 -9.026499748 2.861700296 0.0 -0.0 0.0 16.573604584 -38.216697693 -47.179794312 100.867790222 -59.548999786 -69.397499084 0.0 -0.0 4.079899788 14.778601646 0.810599983 0.213799983 -7.125 0.0 0.0 -9.34209919 30.741195679 3.29300046 0.0 -0.0 0.0 21.113502502 54.036010742 -25.965101242 -124.328483582 55.041599274 -89.234390259 0.0 -0.0 7.714001179 -28.148891449 -25.117401123 12.795597076 7.125 -0.0 0.0 1.645700097 -57.971279144 -0.522500217 
